<svg width="162" height="51" viewBox="0 0 162 51" fill="none" xmlns="http://www.w3.org/2000/svg">
<path fill-rule="evenodd" clip-rule="evenodd" d="M32.4102 5.15692C32.4102 3.57517 34.1275 2.57243 35.5315 3.33447L48.4929 10.3758C49.9474 11.1656 49.9474 13.2299 48.4929 14.0196L35.5326 21.061C34.1286 21.823 32.4113 20.8203 32.4113 19.2385L32.4102 5.15692Z" stroke="#D6BAF3" stroke-width="3.05618" stroke-linecap="round" stroke-linejoin="round"/>
<path d="M11.601 20.4688L11.5939 20.4658L11.5714 20.4536C11.4399 20.3818 11.3094 20.3081 11.18 20.2326C9.62443 19.3157 8.1707 18.2385 6.84293 17.019C4.49147 14.8425 2 11.6127 2 7.63475C2 4.6665 4.51804 2.31257 7.55726 2.31257C8.40214 2.30847 9.23709 2.49336 10 2.85351C10.7629 3.21366 11.4342 3.7398 11.9638 4.39278C12.4936 3.73966 13.165 3.21345 13.9281 2.85329C14.6912 2.49314 15.5264 2.30831 16.3714 2.31257C19.4096 2.31257 21.9276 4.6665 21.9276 7.63475C21.9276 11.6137 19.4362 14.8435 17.0847 17.018C15.757 18.2375 14.3032 19.3147 12.7476 20.2316C12.6183 20.3075 12.4878 20.3815 12.3562 20.4536L12.3338 20.4658L12.3266 20.4698L12.3235 20.4708C12.2127 20.5291 12.0892 20.5595 11.9638 20.5595C11.8384 20.5595 11.7149 20.5291 11.6041 20.4708L11.601 20.4688Z" stroke="#B6DADD" stroke-width="3.05618" stroke-linecap="round" stroke-linejoin="round"/>
<path d="M11.1198 28.6052C11.5925 28.3322 12.175 28.3322 12.6478 28.6052L19.6794 32.6648C20.1522 32.9378 20.4434 33.4423 20.4434 33.9882V42.1075C20.4434 42.6534 20.1522 43.1579 19.6794 43.4309L12.6478 47.4905C12.175 47.7635 11.5925 47.7635 11.1198 47.4905L4.08822 43.4309C3.61543 43.1579 3.32418 42.6534 3.32418 42.1075V33.9882C3.32418 33.4423 3.61543 32.9378 4.08822 32.6648L11.1198 28.6052Z" stroke="#EF9A63" stroke-width="3.05618" stroke-linecap="round" stroke-linejoin="round"/>
<path fill-rule="evenodd" clip-rule="evenodd" d="M34.1634 30.1914C36.4782 29.8526 38.8149 29.6829 41.1546 29.6836C43.5299 29.6836 45.8633 29.8571 48.1458 30.1905C50.0793 30.4751 51.4185 32.1634 51.4185 34.0603V39.9284C51.4185 41.8253 50.0793 43.5136 48.1458 43.7982C46.2494 44.075 44.3178 44.2417 42.3569 44.2905C42.2594 44.2924 42.1664 44.3314 42.0969 44.3996L38.007 48.4771C37.9044 48.5792 37.7739 48.6487 37.6317 48.6769C37.4896 48.705 37.3423 48.6906 37.2084 48.6353C37.0745 48.58 36.9601 48.4864 36.8795 48.3663C36.7989 48.2462 36.7559 48.105 36.7557 47.9605V44.1053C35.889 44.0262 35.0245 43.9235 34.1634 43.7972C32.2298 43.5146 30.8906 41.8243 30.8906 39.9274V34.0613C30.8906 32.1644 32.2298 30.4741 34.1634 30.1914Z" stroke="#F9DC86" stroke-width="3.05618" stroke-linecap="round" stroke-linejoin="round"/>
<path d="M73.545 34.8648V25.9694H81.5368V23.0325H73.545V17.1869H81.9604V14.25H70.1562V34.8648H73.545Z" fill="#171A15"/>
<path d="M90.7642 35.3167C93.4187 35.3167 95.0849 33.9612 95.7626 31.3914V34.8648H98.3889V19.6437H95.0849V28.6804C95.0849 30.9113 93.6447 32.3233 91.6114 32.3233C89.6347 32.3233 88.3639 31.0243 88.3639 28.9063V19.6437H85.0599V28.4545C85.0599 32.9728 87.0366 35.3167 90.623 35.3167H90.7642Z" fill="#171A15"/>
<path d="M106.601 34.8648V25.8564C106.601 23.6537 108.041 22.1853 110.187 22.1853C112.277 22.1853 113.576 23.5973 113.576 25.7152V34.8648H116.88V26.1671C116.88 21.6205 115.016 19.1919 111.288 19.1919H111.147C108.323 19.1919 106.601 20.6039 105.923 23.2866V19.6437H103.297V34.8648H106.601Z" fill="#171A15"/>
<path d="M127.796 35.3731C130.281 35.3731 132.484 34.2436 133.585 31.7302V34.8648H136.211V14.25H132.907V21.9029C131.778 20.0391 129.914 19.1637 127.683 19.1637C123.334 19.1637 120.397 22.6371 120.397 27.0142V27.5508C120.397 31.9562 123.475 35.3731 127.796 35.3731ZM128.417 32.5209C125.678 32.5209 123.701 30.4877 123.701 27.2684C123.701 24.1056 125.593 21.9876 128.389 21.9876C130.846 21.9876 133.02 23.6537 133.02 26.5342V27.7485C133.02 30.7136 130.959 32.5209 128.417 32.5209Z" fill="#171A15"/>
<path d="M144.58 34.8648V14.25H139.242V16.7916H141.247V34.8648H144.58Z" fill="#171A15"/>
<path d="M150.959 40.8234C154.376 40.8234 156.296 39.5526 157.2 36.3615L162.001 19.6437H158.809L155.421 31.8432H154.799L150.761 19.6437H147.401L152.569 34.5259H154.658L154.376 35.5708C153.868 37.3217 152.964 37.9147 151.213 37.9147H148.7V40.8234H150.959Z" fill="#171A15"/>
</svg>
