<svg width="40" height="40" viewBox="0 0 40 40" fill="none" xmlns="http://www.w3.org/2000/svg">
<path d="M28.135 7.24376C23.5604 9.0742 18.6771 10.01 13.75 10.0004H12.5C10.3045 9.99726 8.18811 10.8195 6.57067 12.304C4.95322 13.7886 3.95295 15.8269 3.76832 18.0146C3.58369 20.2022 4.22819 22.3794 5.57395 24.114C6.91971 25.8486 8.86837 27.0139 11.0333 27.3788C11.585 29.6367 12.3541 31.8358 13.33 33.9454C14.1033 35.6188 16.12 36.1454 17.6333 35.2721L18.7283 34.6404C20.195 33.7938 20.67 31.9871 20.015 30.5271C19.6213 29.6525 19.2719 28.7586 18.9683 27.8488C22.165 28.2788 25.235 29.0988 28.135 30.2588C29.3741 26.5486 30.004 22.6621 30 18.7504C30 14.7288 29.345 10.8588 28.135 7.24376ZM30.4333 6.23376C31.806 10.2639 32.5043 14.4929 32.5 18.7504C32.5043 23.0079 31.806 27.237 30.4333 31.2671C30.3416 31.5354 30.2483 31.8038 30.15 32.0704C30.0359 32.3818 30.0503 32.7258 30.1898 33.0266C30.3294 33.3275 30.5827 33.5605 30.8941 33.6746C31.2055 33.7886 31.5495 33.7743 31.8503 33.6347C32.1512 33.4952 32.3843 33.2418 32.4983 32.9304C33.7619 29.4803 34.5552 25.8757 34.8566 22.2138C35.752 21.2833 36.2515 20.0417 36.25 18.7504C36.25 17.4071 35.7183 16.1838 34.8566 15.2871C34.5533 11.6255 33.7601 8.02112 32.4983 4.57043C32.4418 4.41623 32.3555 4.27467 32.2444 4.15382C32.1332 4.03298 31.9993 3.93521 31.8503 3.86611C31.5495 3.72655 31.2055 3.71222 30.8941 3.82626C30.5827 3.9403 30.3294 4.17338 30.1898 4.47422C30.0503 4.77506 30.0359 5.11902 30.15 5.43043C30.2483 5.69709 30.3433 5.96376 30.4333 6.23376Z" fill="#171A15"/>
</svg>
