<svg width="40" height="40" viewBox="0 0 40 40" fill="none" xmlns="http://www.w3.org/2000/svg">
<path fill-rule="evenodd" clip-rule="evenodd" d="M3.75 6.875C3.75 5.14833 5.15 3.75 6.875 3.75H15.625C17.3517 3.75 18.75 5.15 18.75 6.875V28.75C18.75 30.7391 17.9598 32.6468 16.5533 34.0533C15.1468 35.4598 13.2391 36.25 11.25 36.25C9.26088 36.25 7.35322 35.4598 5.9467 34.0533C4.54018 32.6468 3.75 30.7391 3.75 28.75V6.875ZM11.25 30.625C11.7473 30.625 12.2242 30.4275 12.5758 30.0758C12.9275 29.7242 13.125 29.2473 13.125 28.75C13.125 28.2527 12.9275 27.7758 12.5758 27.4242C12.2242 27.0725 11.7473 26.875 11.25 26.875C10.7527 26.875 10.2758 27.0725 9.92417 27.4242C9.57254 27.7758 9.375 28.2527 9.375 28.75C9.375 29.2473 9.57254 29.7242 9.92417 30.0758C10.2758 30.4275 10.7527 30.625 11.25 30.625Z" fill="#171A15"/>
<path d="M17.8657 36.2512H33.1257C34.8524 36.2512 36.2507 34.8512 36.2507 33.1262V24.3762C36.2507 22.6495 34.8507 21.2512 33.1257 21.2512H32.8924L18.3224 35.8228C18.1724 35.9712 18.0224 36.1145 17.8657 36.2512ZM21.2307 29.3762L32.0207 18.5862C32.6064 18.0002 32.9355 17.2055 32.9355 16.377C32.9355 15.5485 32.6064 14.7538 32.0207 14.1678L25.8341 7.97951C25.248 7.39379 24.4534 7.06476 23.6249 7.06476C22.7964 7.06476 22.0017 7.39379 21.4157 7.97951L21.2491 8.14451V28.7512C21.2491 28.9612 21.2441 29.1695 21.2324 29.3762H21.2307Z" fill="#171A15"/>
</svg>
