<svg width="40" height="40" viewBox="0 0 40 40" fill="none" xmlns="http://www.w3.org/2000/svg">
<path fill-rule="evenodd" clip-rule="evenodd" d="M24.3583 2.65834C24.6023 2.79417 24.7938 3.00781 24.9022 3.26518C25.0107 3.52255 25.0298 3.80883 24.9566 4.07834L21.6366 16.25H33.7499C33.9935 16.25 34.2318 16.3212 34.4355 16.4548C34.6392 16.5885 34.7994 16.7787 34.8964 17.0021C34.9934 17.2256 35.0231 17.4725 34.9816 17.7126C34.9402 17.9526 34.8296 18.1753 34.6633 18.3533L17.1633 37.1033C16.9726 37.308 16.7189 37.4428 16.4426 37.4863C16.1664 37.5297 15.8835 37.4792 15.6393 37.3429C15.3951 37.2066 15.2036 36.9923 15.0956 36.7344C14.9875 36.4764 14.9691 36.1897 15.0433 35.92L18.3633 23.75H6.24992C6.00632 23.75 5.76803 23.6788 5.56435 23.5452C5.36066 23.4116 5.20046 23.2213 5.10343 22.9979C5.00641 22.7744 4.97678 22.5275 5.0182 22.2875C5.05963 22.0474 5.17029 21.8247 5.33659 21.6467L22.8366 2.89667C23.0272 2.69275 23.2806 2.5585 23.5564 2.5153C23.8321 2.47211 24.1144 2.52246 24.3583 2.65834Z" fill="#171A15"/>
</svg>
