<svg width="198" height="35" viewBox="0 0 198 35" fill="none" xmlns="http://www.w3.org/2000/svg">
<g clip-path="url(#clip0_6506_4000)">
<path d="M35.3209 18.9062H29.1533C23.7658 18.9062 19.3984 23.2737 19.3984 28.6611V34.8287C27.9015 34.1982 34.6904 27.4093 35.3209 18.9062Z" fill="black"/>
<path d="M16.8112 34.8287V28.6611C16.8112 23.2737 12.4438 18.9062 7.05632 18.9062H0.888672C1.51914 27.4093 8.30813 34.1982 16.8112 34.8287Z" fill="black"/>
<path d="M35.3209 16.317C34.6904 7.81399 27.9015 1.025 19.3984 0.394531V6.56218C19.3984 11.9496 23.7658 16.317 29.1533 16.317H35.3209Z" fill="black"/>
<path d="M16.8112 0.394531C8.30813 1.025 1.51914 7.81399 0.888672 16.317H7.05632C12.4438 16.317 16.8112 11.9496 16.8112 6.56218V0.394531Z" fill="black"/>
<path d="M12.5645 17.614C14.9578 16.4181 16.9084 14.4676 18.1042 12.0742C19.3 14.4676 21.2505 16.4181 23.644 17.614C21.2505 18.8098 19.3 20.7603 18.1042 23.1537C16.9084 20.7603 14.9578 18.8098 12.5645 17.614Z" fill="black"/>
</g>
<path d="M50.9082 26.9765V6.88603H55.1558V23.4744H63.7688V26.9765H50.9082Z" fill="black"/>
<path d="M73.3113 27.2708C71.7875 27.2708 70.4697 26.947 69.3579 26.2996C68.2527 25.6456 67.3993 24.7366 66.7976 23.5725C66.1959 22.4018 65.8951 21.0448 65.8951 19.5014C65.8951 17.9449 66.1959 16.5846 66.7976 15.4205C67.3993 14.2499 68.2527 13.3409 69.3579 12.6934C70.4697 12.0394 71.7875 11.7124 73.3113 11.7124C74.8351 11.7124 76.1496 12.0394 77.2548 12.6934C78.3666 13.3409 79.2233 14.2499 79.825 15.4205C80.4267 16.5846 80.7275 17.9449 80.7275 19.5014C80.7275 21.0448 80.4267 22.4018 79.825 23.5725C79.2233 24.7366 78.3666 25.6456 77.2548 26.2996C76.1496 26.947 74.8351 27.2708 73.3113 27.2708ZM73.3309 24.0335C74.0241 24.0335 74.6029 23.8373 75.0672 23.4449C75.5316 23.046 75.8815 22.5032 76.1169 21.8165C76.3589 21.1298 76.4798 20.3483 76.4798 19.472C76.4798 18.5956 76.3589 17.8141 76.1169 17.1274C75.8815 16.4408 75.5316 15.8979 75.0672 15.499C74.6029 15.1001 74.0241 14.9006 73.3309 14.9006C72.6311 14.9006 72.0426 15.1001 71.5652 15.499C71.0943 15.8979 70.7379 16.4408 70.4959 17.1274C70.2604 17.8141 70.1427 18.5956 70.1427 19.472C70.1427 20.3483 70.2604 21.1298 70.4959 21.8165C70.7379 22.5032 71.0943 23.046 71.5652 23.4449C72.0426 23.8373 72.6311 24.0335 73.3309 24.0335Z" fill="black"/>
<path d="M90.2332 32.9408C88.8794 32.9408 87.7186 32.7544 86.7507 32.3816C85.7893 32.0154 85.0242 31.5151 84.4552 30.8808C83.8862 30.2464 83.5167 29.5335 83.3467 28.7422L87.2118 28.2223C87.3295 28.5231 87.5159 28.8043 87.7709 29.0659C88.026 29.3275 88.3628 29.5368 88.7813 29.6938C89.2064 29.8573 89.7231 29.939 90.3313 29.939C91.2403 29.939 91.9891 29.7167 92.5777 29.2719C93.1728 28.8338 93.4704 28.098 93.4704 27.0647V24.3082H93.2938C93.1107 24.7267 92.836 25.1224 92.4698 25.4952C92.1036 25.868 91.6327 26.1721 91.0572 26.4075C90.4817 26.6429 89.795 26.7606 88.9971 26.7606C87.8657 26.7606 86.8357 26.499 85.9071 25.9759C84.9849 25.4461 84.2492 24.6385 83.6998 23.5528C83.157 22.4607 82.8856 21.0808 82.8856 19.4131C82.8856 17.7062 83.1636 16.2805 83.7195 15.1361C84.2754 13.9916 85.0144 13.1349 85.9365 12.5659C86.8651 11.9969 87.8821 11.7124 88.9873 11.7124C89.831 11.7124 90.5373 11.8563 91.1062 12.1441C91.6752 12.4253 92.133 12.7784 92.4796 13.2035C92.8328 13.6221 93.1042 14.0341 93.2938 14.4396H93.4508V11.9086H97.6003V27.1236C97.6003 28.4054 97.2864 29.478 96.6586 30.3412C96.0307 31.2045 95.1609 31.8519 94.0492 32.2835C92.9439 32.7217 91.6719 32.9408 90.2332 32.9408ZM90.3215 23.6215C90.9951 23.6215 91.564 23.4547 92.0284 23.1212C92.4992 22.7811 92.8589 22.2972 93.1074 21.6694C93.3625 21.035 93.49 20.2764 93.49 19.3935C93.49 18.5106 93.3658 17.7455 93.1172 17.098C92.8687 16.444 92.509 15.9372 92.0382 15.5775C91.5673 15.2178 90.9951 15.038 90.3215 15.038C89.6348 15.038 89.056 15.2243 88.5851 15.5971C88.1143 15.9633 87.7578 16.4735 87.5159 17.1274C87.2739 17.7814 87.1529 18.5368 87.1529 19.3935C87.1529 20.2633 87.2739 21.0154 87.5159 21.6497C87.7644 22.2776 88.1208 22.7648 88.5851 23.1114C89.056 23.4515 89.6348 23.6215 90.3215 23.6215Z" fill="black"/>
<path d="M107.734 27.2708C106.21 27.2708 104.892 26.947 103.78 26.2996C102.675 25.6456 101.822 24.7366 101.22 23.5725C100.618 22.4018 100.318 21.0448 100.318 19.5014C100.318 17.9449 100.618 16.5846 101.22 15.4205C101.822 14.2499 102.675 13.3409 103.78 12.6934C104.892 12.0394 106.21 11.7124 107.734 11.7124C109.258 11.7124 110.572 12.0394 111.677 12.6934C112.789 13.3409 113.646 14.2499 114.248 15.4205C114.849 16.5846 115.15 17.9449 115.15 19.5014C115.15 21.0448 114.849 22.4018 114.248 23.5725C113.646 24.7366 112.789 25.6456 111.677 26.2996C110.572 26.947 109.258 27.2708 107.734 27.2708ZM107.753 24.0335C108.447 24.0335 109.025 23.8373 109.49 23.4449C109.954 23.046 110.304 22.5032 110.539 21.8165C110.781 21.1298 110.902 20.3483 110.902 19.472C110.902 18.5956 110.781 17.8141 110.539 17.1274C110.304 16.4408 109.954 15.8979 109.49 15.499C109.025 15.1001 108.447 14.9006 107.753 14.9006C107.054 14.9006 106.465 15.1001 105.988 15.499C105.517 15.8979 105.16 16.4408 104.918 17.1274C104.683 17.8141 104.565 18.5956 104.565 19.472C104.565 20.3483 104.683 21.1298 104.918 21.8165C105.16 22.5032 105.517 23.046 105.988 23.4449C106.465 23.8373 107.054 24.0335 107.753 24.0335Z" fill="black"/>
<path d="M117.867 26.9765V11.9086H122.046V26.9765H117.867ZM119.967 9.9663C119.345 9.9663 118.812 9.76029 118.368 9.34828C117.929 8.92973 117.71 8.42943 117.71 7.84738C117.71 7.27188 117.929 6.77812 118.368 6.36611C118.812 5.94756 119.345 5.73828 119.967 5.73828C120.588 5.73828 121.118 5.94756 121.556 6.36611C122.001 6.77812 122.223 7.27188 122.223 7.84738C122.223 8.42943 122.001 8.92973 121.556 9.34828C121.118 9.76029 120.588 9.9663 119.967 9.9663Z" fill="black"/>
<path d="M125.394 32.6269V11.9086H129.514V14.4396H129.7C129.883 14.0341 130.148 13.6221 130.495 13.2035C130.848 12.7784 131.306 12.4253 131.868 12.1441C132.437 11.8563 133.144 11.7124 133.987 11.7124C135.086 11.7124 136.1 12.0002 137.028 12.5757C137.957 13.1447 138.699 14.0047 139.255 15.1557C139.811 16.3001 140.089 17.7356 140.089 19.4622C140.089 21.1429 139.818 22.5621 139.275 23.7196C138.738 24.8706 138.006 25.7437 137.077 26.3388C136.155 26.9274 135.122 27.2217 133.977 27.2217C133.166 27.2217 132.477 27.0876 131.908 26.8195C131.345 26.5514 130.884 26.2146 130.524 25.8091C130.165 25.3971 129.89 24.9818 129.7 24.5633H129.573V32.6269H125.394ZM129.485 19.4425C129.485 20.3385 129.609 21.12 129.857 21.7871C130.106 22.4541 130.466 22.9741 130.936 23.3468C131.407 23.7131 131.98 23.8962 132.653 23.8962C133.333 23.8962 133.909 23.7098 134.38 23.337C134.851 22.9577 135.207 22.4345 135.449 21.7675C135.697 21.0939 135.822 20.3189 135.822 19.4425C135.822 18.5727 135.701 17.8076 135.459 17.1471C135.217 16.4865 134.86 15.9699 134.389 15.5971C133.919 15.2243 133.34 15.038 132.653 15.038C131.973 15.038 131.397 15.2178 130.927 15.5775C130.462 15.9372 130.106 16.4473 129.857 17.1078C129.609 17.7683 129.485 18.5466 129.485 19.4425Z" fill="black"/>
<path d="M155.412 16.2053L151.586 16.4408C151.521 16.1138 151.38 15.8195 151.164 15.5579C150.948 15.2897 150.664 15.0772 150.311 14.9202C149.964 14.7567 149.549 14.675 149.065 14.675C148.417 14.675 147.871 14.8123 147.427 15.087C146.982 15.3551 146.76 15.7148 146.76 16.1661C146.76 16.5258 146.903 16.8299 147.191 17.0784C147.479 17.3269 147.973 17.5264 148.672 17.6768L151.4 18.2261C152.865 18.527 153.957 19.0109 154.676 19.678C155.395 20.345 155.755 21.2214 155.755 22.307C155.755 23.2945 155.464 24.161 154.882 24.9066C154.307 25.6521 153.515 26.2342 152.508 26.6527C151.508 27.0647 150.353 27.2708 149.045 27.2708C147.051 27.2708 145.461 26.8555 144.278 26.0249C143.101 25.1878 142.411 24.0499 142.208 22.6111L146.318 22.3953C146.442 23.0035 146.743 23.4678 147.221 23.7883C147.698 24.1022 148.31 24.2591 149.055 24.2591C149.788 24.2591 150.376 24.1185 150.821 23.8373C151.272 23.5496 151.501 23.1801 151.508 22.7288C151.501 22.3495 151.341 22.0389 151.027 21.7969C150.713 21.5484 150.229 21.3587 149.575 21.2279L146.966 20.708C145.494 20.4137 144.399 19.9036 143.679 19.1777C142.966 18.4518 142.61 17.5264 142.61 16.4015C142.61 15.4336 142.872 14.5998 143.395 13.9C143.925 13.2003 144.667 12.6607 145.622 12.2814C146.583 11.9021 147.708 11.7124 148.996 11.7124C150.899 11.7124 152.397 12.1146 153.489 12.919C154.588 13.7234 155.229 14.8189 155.412 16.2053Z" fill="black"/>
<path d="M168.049 20.5609V11.9086H172.228V26.9765H168.216V24.2395H168.059C167.719 25.1224 167.153 25.832 166.362 26.3682C165.577 26.9045 164.619 27.1727 163.488 27.1727C162.481 27.1727 161.594 26.9438 160.829 26.486C160.064 26.0282 159.466 25.3775 159.034 24.5338C158.609 23.6902 158.393 22.6798 158.387 21.5026V11.9086H162.566V20.7571C162.572 21.6465 162.811 22.3495 163.282 22.8662C163.753 23.3828 164.384 23.6411 165.175 23.6411C165.679 23.6411 166.149 23.5267 166.588 23.2978C167.026 23.0624 167.379 22.7157 167.647 22.258C167.922 21.8002 168.056 21.2345 168.049 20.5609Z" fill="black"/>
<path d="M175.571 26.9765V11.9086H179.554V14.5671H179.73C180.044 13.6842 180.567 12.9877 181.3 12.4776C182.032 11.9675 182.909 11.7124 183.929 11.7124C184.962 11.7124 185.842 11.9708 186.568 12.4874C187.294 12.9975 187.778 13.6907 188.02 14.5671H188.176C188.484 13.7038 189.04 13.0139 189.844 12.4972C190.655 11.974 191.613 11.7124 192.718 11.7124C194.124 11.7124 195.266 12.1604 196.142 13.0564C197.025 13.9458 197.466 15.208 197.466 16.843V26.9765H193.297V17.667C193.297 16.8299 193.075 16.202 192.63 15.7835C192.185 15.3649 191.63 15.1557 190.962 15.1557C190.204 15.1557 189.612 15.3976 189.187 15.8816C188.762 16.359 188.549 16.9901 188.549 17.7749V26.9765H184.498V17.5787C184.498 16.8397 184.285 16.2511 183.86 15.8129C183.442 15.3748 182.889 15.1557 182.202 15.1557C181.738 15.1557 181.319 15.2734 180.947 15.5088C180.58 15.7377 180.289 16.0614 180.074 16.48C179.858 16.892 179.75 17.376 179.75 17.9318V26.9765H175.571Z" fill="black"/>
<defs>
<clipPath id="clip0_6506_4000">
<rect width="34.5304" height="34.5304" fill="white" transform="translate(0.839844 0.347656)"/>
</clipPath>
</defs>
</svg>
