<svg width="227" height="32" viewBox="0 0 227 32" fill="none" xmlns="http://www.w3.org/2000/svg">
<g clip-path="url(#clip0_6506_4012)">
<path d="M34.306 26.5091L49.1703 1.47458H65.1502L50.2859 26.5091H34.306Z" stroke="black" stroke-width="2.58978"/>
<path d="M31.1676 0.179688H44.9797L28.5778 27.804H14.7656L31.1676 0.179688Z" fill="black"/>
<path d="M17.3551 0.179688H27.7142L11.3123 27.804H0.953125L17.3551 0.179688Z" fill="black"/>
</g>
<path d="M79.9414 25.0819V4.99149H84.189V21.5798H92.802V25.0819H79.9414Z" fill="black"/>
<path d="M102.344 25.3762C100.821 25.3762 99.5029 25.0525 98.3912 24.4051C97.2859 23.7511 96.4325 22.842 95.8308 21.6779C95.2291 20.5073 94.9283 19.1503 94.9283 17.6069C94.9283 16.0504 95.2291 14.6901 95.8308 13.526C96.4325 12.3554 97.2859 11.4463 98.3912 10.7989C99.5029 10.1449 100.821 9.81791 102.344 9.81791C103.868 9.81791 105.183 10.1449 106.288 10.7989C107.4 11.4463 108.257 12.3554 108.858 13.526C109.46 14.6901 109.761 16.0504 109.761 17.6069C109.761 19.1503 109.46 20.5073 108.858 21.6779C108.257 22.842 107.4 23.7511 106.288 24.4051C105.183 25.0525 103.868 25.3762 102.344 25.3762ZM102.364 22.139C103.057 22.139 103.636 21.9428 104.1 21.5504C104.565 21.1515 104.915 20.6087 105.15 19.922C105.392 19.2353 105.513 18.4538 105.513 17.5774C105.513 16.7011 105.392 15.9196 105.15 15.2329C104.915 14.5462 104.565 14.0034 104.1 13.6045C103.636 13.2056 103.057 13.0061 102.364 13.0061C101.664 13.0061 101.076 13.2056 100.598 13.6045C100.127 14.0034 99.7711 14.5462 99.5291 15.2329C99.2937 15.9196 99.1759 16.7011 99.1759 17.5774C99.1759 18.4538 99.2937 19.2353 99.5291 19.922C99.7711 20.6087 100.127 21.1515 100.598 21.5504C101.076 21.9428 101.664 22.139 102.364 22.139Z" fill="black"/>
<path d="M119.266 31.0463C117.913 31.0463 116.752 30.8599 115.784 30.4871C114.823 30.1209 114.057 29.6206 113.488 28.9862C112.919 28.3519 112.55 27.639 112.38 26.8477L116.245 26.3278C116.363 26.6286 116.549 26.9098 116.804 27.1714C117.059 27.433 117.396 27.6423 117.815 27.7992C118.24 27.9627 118.756 28.0445 119.364 28.0445C120.274 28.0445 121.022 27.8221 121.611 27.3774C122.206 26.9392 122.504 26.2035 122.504 25.1702V22.4137H122.327C122.144 22.8322 121.869 23.2279 121.503 23.6006C121.137 23.9734 120.666 24.2775 120.09 24.513C119.515 24.7484 118.828 24.8661 118.03 24.8661C116.899 24.8661 115.869 24.6045 114.94 24.0813C114.018 23.5516 113.282 22.7439 112.733 21.6583C112.19 20.5662 111.919 19.1862 111.919 17.5186C111.919 15.8117 112.197 14.386 112.753 13.2415C113.309 12.097 114.048 11.2403 114.97 10.6714C115.898 10.1024 116.915 9.81791 118.021 9.81791C118.864 9.81791 119.57 9.96178 120.139 10.2495C120.708 10.5308 121.166 10.8839 121.513 11.309C121.866 11.7275 122.137 12.1396 122.327 12.545H122.484V10.0141H126.634V25.2291C126.634 26.5109 126.32 27.5834 125.692 28.4467C125.064 29.3099 124.194 29.9574 123.082 30.389C121.977 30.8272 120.705 31.0463 119.266 31.0463ZM119.355 21.727C120.028 21.727 120.597 21.5602 121.062 21.2267C121.532 20.8866 121.892 20.4027 122.141 19.7748C122.396 19.1405 122.523 18.3818 122.523 17.499C122.523 16.6161 122.399 15.8509 122.15 15.2035C121.902 14.5495 121.542 14.0427 121.071 13.683C120.6 13.3233 120.028 13.1434 119.355 13.1434C118.668 13.1434 118.089 13.3298 117.618 13.7026C117.147 14.0688 116.791 14.5789 116.549 15.2329C116.307 15.8869 116.186 16.6422 116.186 17.499C116.186 18.3688 116.307 19.1208 116.549 19.7552C116.798 20.383 117.154 20.8703 117.618 21.2169C118.089 21.5569 118.668 21.727 119.355 21.727Z" fill="black"/>
<path d="M136.767 25.3762C135.243 25.3762 133.925 25.0525 132.814 24.4051C131.708 23.7511 130.855 22.842 130.253 21.6779C129.652 20.5073 129.351 19.1503 129.351 17.6069C129.351 16.0504 129.652 14.6901 130.253 13.526C130.855 12.3554 131.708 11.4463 132.814 10.7989C133.925 10.1449 135.243 9.81791 136.767 9.81791C138.291 9.81791 139.605 10.1449 140.711 10.7989C141.822 11.4463 142.679 12.3554 143.281 13.526C143.882 14.6901 144.183 16.0504 144.183 17.6069C144.183 19.1503 143.882 20.5073 143.281 21.6779C142.679 22.842 141.822 23.7511 140.711 24.4051C139.605 25.0525 138.291 25.3762 136.767 25.3762ZM136.787 22.139C137.48 22.139 138.059 21.9428 138.523 21.5504C138.987 21.1515 139.337 20.6087 139.573 19.922C139.815 19.2353 139.936 18.4538 139.936 17.5774C139.936 16.7011 139.815 15.9196 139.573 15.2329C139.337 14.5462 138.987 14.0034 138.523 13.6045C138.059 13.2056 137.48 13.0061 136.787 13.0061C136.087 13.0061 135.498 13.2056 135.021 13.6045C134.55 14.0034 134.194 14.5462 133.952 15.2329C133.716 15.9196 133.598 16.7011 133.598 17.5774C133.598 18.4538 133.716 19.2353 133.952 19.922C134.194 20.6087 134.55 21.1515 135.021 21.5504C135.498 21.9428 136.087 22.139 136.787 22.139Z" fill="black"/>
<path d="M146.901 25.0819V10.0141H151.079V25.0819H146.901ZM149 8.07177C148.379 8.07177 147.846 7.86576 147.401 7.45375C146.963 7.0352 146.744 6.5349 146.744 5.95285C146.744 5.37735 146.963 4.88359 147.401 4.47158C147.846 4.05303 148.379 3.84375 149 3.84375C149.621 3.84375 150.151 4.05303 150.589 4.47158C151.034 4.88359 151.256 5.37735 151.256 5.95285C151.256 6.5349 151.034 7.0352 150.589 7.45375C150.151 7.86576 149.621 8.07177 149 8.07177Z" fill="black"/>
<path d="M154.427 30.7324V10.0141H158.547V12.545H158.734C158.917 12.1396 159.182 11.7275 159.528 11.309C159.881 10.8839 160.339 10.5308 160.902 10.2495C161.47 9.96178 162.177 9.81791 163.02 9.81791C164.119 9.81791 165.133 10.1057 166.061 10.6812C166.99 11.2501 167.732 12.1101 168.288 13.2611C168.844 14.4056 169.122 15.8411 169.122 17.5676C169.122 19.2484 168.851 20.6675 168.308 21.8251C167.772 22.9761 167.039 23.8492 166.111 24.4443C165.188 25.0329 164.155 25.3272 163.011 25.3272C162.2 25.3272 161.51 25.1931 160.941 24.925C160.378 24.6568 159.917 24.32 159.558 23.9146C159.198 23.5026 158.923 23.0873 158.734 22.6687H158.606V30.7324H154.427ZM158.518 17.548C158.518 18.444 158.642 19.2255 158.891 19.8926C159.139 20.5596 159.499 21.0795 159.97 21.4523C160.44 21.8185 161.013 22.0017 161.686 22.0017C162.366 22.0017 162.942 21.8153 163.413 21.4425C163.884 21.0632 164.24 20.54 164.482 19.8729C164.731 19.1993 164.855 18.4244 164.855 17.548C164.855 16.6782 164.734 15.9131 164.492 15.2525C164.25 14.592 163.894 14.0754 163.423 13.7026C162.952 13.3298 162.373 13.1434 161.686 13.1434C161.006 13.1434 160.431 13.3233 159.96 13.683C159.495 14.0427 159.139 14.5528 158.891 15.2133C158.642 15.8738 158.518 16.6521 158.518 17.548Z" fill="black"/>
<path d="M184.445 14.3108L180.619 14.5462C180.554 14.2192 180.413 13.9249 180.197 13.6633C179.982 13.3952 179.697 13.1827 179.344 13.0257C178.997 12.8622 178.582 12.7805 178.098 12.7805C177.451 12.7805 176.905 12.9178 176.46 13.1925C176.015 13.4606 175.793 13.8203 175.793 14.2715C175.793 14.6312 175.937 14.9353 176.224 15.1839C176.512 15.4324 177.006 15.6318 177.706 15.7823L180.433 16.3316C181.898 16.6324 182.99 17.1164 183.709 17.7834C184.429 18.4505 184.788 19.3269 184.788 20.4125C184.788 21.4 184.497 22.2665 183.915 23.0121C183.34 23.7576 182.548 24.3397 181.541 24.7582C180.541 25.1702 179.386 25.3762 178.078 25.3762C176.084 25.3762 174.495 24.9609 173.311 24.1304C172.134 23.2933 171.444 22.1553 171.241 20.7166L175.351 20.5008C175.476 21.109 175.776 21.5733 176.254 21.8937C176.731 22.2077 177.343 22.3646 178.088 22.3646C178.821 22.3646 179.409 22.224 179.854 21.9428C180.305 21.655 180.534 21.2855 180.541 20.8343C180.534 20.455 180.374 20.1443 180.06 19.9024C179.746 19.6538 179.262 19.4642 178.608 19.3334L175.999 18.8135C174.527 18.5192 173.432 18.0091 172.713 17.2831C172 16.5572 171.643 15.6318 171.643 14.507C171.643 13.5391 171.905 12.7053 172.428 12.0055C172.958 11.3057 173.7 10.7662 174.655 10.3869C175.616 10.0076 176.741 9.81791 178.029 9.81791C179.933 9.81791 181.43 10.2201 182.522 11.0245C183.621 11.8289 184.262 12.9243 184.445 14.3108Z" fill="black"/>
<path d="M197.082 18.6663V10.0141H201.261V25.0819H197.249V22.345H197.092C196.752 23.2279 196.187 23.9375 195.395 24.4737C194.61 25.01 193.652 25.2781 192.521 25.2781C191.514 25.2781 190.628 25.0492 189.862 24.5914C189.097 24.1336 188.499 23.4829 188.067 22.6393C187.642 21.7956 187.426 20.7852 187.42 19.6081V10.0141H191.599V18.8625C191.605 19.7519 191.844 20.455 192.315 20.9716C192.786 21.4883 193.417 21.7466 194.208 21.7466C194.712 21.7466 195.183 21.6322 195.621 21.4033C196.059 21.1678 196.412 20.8212 196.68 20.3634C196.955 19.9056 197.089 19.3399 197.082 18.6663Z" fill="black"/>
<path d="M204.604 25.0819V10.0141H208.587V12.6726H208.763C209.077 11.7897 209.601 11.0932 210.333 10.5831C211.065 10.073 211.942 9.81791 212.962 9.81791C213.995 9.81791 214.875 10.0762 215.601 10.5929C216.327 11.103 216.811 11.7962 217.053 12.6726H217.21C217.517 11.8093 218.073 11.1193 218.877 10.6027C219.688 10.0795 220.646 9.81791 221.752 9.81791C223.158 9.81791 224.299 10.2659 225.175 11.1618C226.058 12.0513 226.5 13.3135 226.5 14.9484V25.0819H222.33V15.7724C222.33 14.9353 222.108 14.3075 221.663 13.889C221.219 13.4704 220.663 13.2611 219.996 13.2611C219.237 13.2611 218.645 13.5031 218.22 13.9871C217.795 14.4645 217.582 15.0956 217.582 15.8804V25.0819H213.531V15.6842C213.531 14.9452 213.318 14.3566 212.893 13.9184C212.475 13.4802 211.922 13.2611 211.236 13.2611C210.771 13.2611 210.353 13.3789 209.98 13.6143C209.614 13.8432 209.323 14.1669 209.107 14.5855C208.891 14.9975 208.783 15.4814 208.783 16.0373V25.0819H204.604Z" fill="black"/>
<defs>
<clipPath id="clip0_6506_4012">
<rect width="67.3343" height="27.6243" fill="white" transform="translate(0.521484 0.179688)"/>
</clipPath>
</defs>
</svg>
