<svg width="197" height="37" viewBox="0 0 197 37" fill="none" xmlns="http://www.w3.org/2000/svg">
<g clip-path="url(#clip0_6506_4008)">
<path fill-rule="evenodd" clip-rule="evenodd" d="M12.0209 1.36328C10.0731 1.36328 8.20504 2.13705 6.82772 3.51438L0.181641 10.1604V13.2025C0.181641 15.3518 1.10485 17.2854 2.57633 18.6285C1.10485 19.9715 0.181641 21.9052 0.181641 24.0544V27.0966L6.82772 33.7426C8.20504 35.12 10.0731 35.8937 12.0209 35.8937C14.1702 35.8937 16.1038 34.9705 17.4469 33.499C18.7899 34.9705 20.7235 35.8937 22.8728 35.8937C24.8207 35.8937 26.6887 35.12 28.066 33.7426L34.7121 27.0966V24.0544C34.7121 21.9052 33.7889 19.9715 32.3174 18.6285C33.7889 17.2854 34.7121 15.3518 34.7121 13.2025V10.1604L28.066 3.51438C26.6887 2.13705 24.8207 1.36328 22.8728 1.36328C20.7235 1.36328 18.7899 2.28648 17.4469 3.75797C16.1038 2.28648 14.1702 1.36328 12.0209 1.36328ZM22.4182 18.6285C22.3354 18.5529 22.2542 18.4753 22.1746 18.3957L17.4469 13.668L12.7191 18.3957C12.6395 18.4753 12.5583 18.5529 12.4755 18.6285C12.5583 18.704 12.6395 18.7816 12.7191 18.8612L17.4469 23.589L22.1746 18.8612C22.2542 18.7816 22.3354 18.704 22.4182 18.6285ZM19.3652 27.0966V28.5494C19.3652 30.4866 20.9356 32.057 22.8728 32.057C23.803 32.057 24.6952 31.6875 25.353 31.0297L30.8754 25.5073V24.0544C30.8754 22.1173 29.3049 20.5468 27.3678 20.5468C26.4375 20.5468 25.5454 20.9164 24.8876 21.5742L19.3652 27.0966ZM15.5285 27.0966L10.0062 21.5742C9.34835 20.9164 8.4562 20.5468 7.52593 20.5468C5.58875 20.5468 4.01835 22.1173 4.01835 24.0544V25.5073L9.54068 31.0297C10.1985 31.6875 11.0907 32.057 12.0209 32.057C13.9581 32.057 15.5285 30.4866 15.5285 28.5494V27.0966ZM15.5285 8.70757V10.1604L10.0062 15.6828C9.34835 16.3406 8.4562 16.7101 7.52593 16.7101C5.58875 16.7101 4.01835 15.1397 4.01835 13.2025V11.7497L9.54068 6.22734C10.1985 5.56954 11.0907 5.2 12.0209 5.2C13.9581 5.2 15.5285 6.77039 15.5285 8.70757ZM24.8876 15.6828L19.3652 10.1604V8.70757C19.3652 6.77039 20.9356 5.2 22.8728 5.2C23.803 5.2 24.6952 5.56954 25.353 6.22734L30.8754 11.7497V13.2025C30.8754 15.1397 29.3049 16.7101 27.3678 16.7101C26.4375 16.7101 25.5454 16.3406 24.8876 15.6828Z" fill="black"/>
</g>
<path d="M50.25 27.5468V7.45634H54.4976V24.0447H63.1106V27.5468H50.25Z" fill="black"/>
<path d="M72.6531 27.8411C71.1293 27.8411 69.8115 27.5173 68.6997 26.8699C67.5945 26.2159 66.7411 25.3069 66.1394 24.1428C65.5377 22.9721 65.2369 21.6151 65.2369 20.0717C65.2369 18.5152 65.5377 17.1549 66.1394 15.9908C66.7411 14.8202 67.5945 13.9112 68.6997 13.2637C69.8115 12.6097 71.1293 12.2828 72.6531 12.2828C74.1769 12.2828 75.4914 12.6097 76.5966 13.2637C77.7084 13.9112 78.5651 14.8202 79.1668 15.9908C79.7684 17.1549 80.0693 18.5152 80.0693 20.0717C80.0693 21.6151 79.7684 22.9721 79.1668 24.1428C78.5651 25.3069 77.7084 26.2159 76.5966 26.8699C75.4914 27.5173 74.1769 27.8411 72.6531 27.8411ZM72.6727 24.6038C73.3659 24.6038 73.9447 24.4076 74.409 24.0152C74.8734 23.6163 75.2232 23.0735 75.4587 22.3868C75.7007 21.7001 75.8216 20.9186 75.8216 20.0423C75.8216 19.1659 75.7007 18.3844 75.4587 17.6977C75.2232 17.0111 74.8734 16.4683 74.409 16.0693C73.9447 15.6704 73.3659 15.4709 72.6727 15.4709C71.9729 15.4709 71.3844 15.6704 70.9069 16.0693C70.4361 16.4683 70.0797 17.0111 69.8377 17.6977C69.6022 18.3844 69.4845 19.1659 69.4845 20.0423C69.4845 20.9186 69.6022 21.7001 69.8377 22.3868C70.0797 23.0735 70.4361 23.6163 70.9069 24.0152C71.3844 24.4076 71.9729 24.6038 72.6727 24.6038Z" fill="black"/>
<path d="M89.575 33.5111C88.2212 33.5111 87.0604 33.3247 86.0925 32.952C85.1311 32.5857 84.366 32.0854 83.797 31.4511C83.228 30.8167 82.8585 30.1039 82.6885 29.3125L86.5535 28.7926C86.6713 29.0934 86.8577 29.3747 87.1127 29.6363C87.3678 29.8978 87.7046 30.1071 88.1231 30.2641C88.5482 30.4276 89.0649 30.5093 89.6731 30.5093C90.5821 30.5093 91.3309 30.287 91.9195 29.8423C92.5146 29.4041 92.8122 28.6684 92.8122 27.6351V24.8785H92.6356C92.4525 25.2971 92.1778 25.6927 91.8116 26.0655C91.4454 26.4383 90.9745 26.7424 90.399 26.9778C89.8235 27.2132 89.1368 27.331 88.3389 27.331C87.2075 27.331 86.1775 27.0694 85.2488 26.5462C84.3267 26.0164 83.591 25.2088 83.0416 24.1232C82.4988 23.031 82.2274 21.6511 82.2274 19.9834C82.2274 18.2765 82.5054 16.8508 83.0613 15.7064C83.6172 14.5619 84.3562 13.7052 85.2783 13.1362C86.2069 12.5672 87.2239 12.2828 88.3291 12.2828C89.1728 12.2828 89.8791 12.4266 90.448 12.7144C91.017 12.9956 91.4748 13.3487 91.8214 13.7738C92.1746 14.1924 92.446 14.6044 92.6356 15.0099H92.7926V12.4789H96.9421V27.6939C96.9421 28.9757 96.6282 30.0483 96.0004 30.9115C95.3725 31.7748 94.5027 32.4222 93.391 32.8539C92.2857 33.292 91.0137 33.5111 89.575 33.5111ZM89.6632 24.1918C90.3369 24.1918 90.9058 24.0251 91.3702 23.6915C91.841 23.3515 92.2007 22.8675 92.4492 22.2397C92.7043 21.6053 92.8318 20.8467 92.8318 19.9638C92.8318 19.0809 92.7076 18.3158 92.459 17.6683C92.2105 17.0143 91.8508 16.5075 91.38 16.1478C90.9091 15.7881 90.3369 15.6083 89.6632 15.6083C88.9766 15.6083 88.3978 15.7947 87.9269 16.1674C87.456 16.5337 87.0996 17.0438 86.8577 17.6977C86.6157 18.3517 86.4947 19.1071 86.4947 19.9638C86.4947 20.8336 86.6157 21.5857 86.8577 22.2201C87.1062 22.8479 87.4626 23.3351 87.9269 23.6817C88.3978 24.0218 88.9766 24.1918 89.6632 24.1918Z" fill="black"/>
<path d="M107.076 27.8411C105.552 27.8411 104.234 27.5173 103.122 26.8699C102.017 26.2159 101.164 25.3069 100.562 24.1428C99.9602 22.9721 99.6594 21.6151 99.6594 20.0717C99.6594 18.5152 99.9602 17.1549 100.562 15.9908C101.164 14.8202 102.017 13.9112 103.122 13.2637C104.234 12.6097 105.552 12.2828 107.076 12.2828C108.599 12.2828 109.914 12.6097 111.019 13.2637C112.131 13.9112 112.988 14.8202 113.589 15.9908C114.191 17.1549 114.492 18.5152 114.492 20.0717C114.492 21.6151 114.191 22.9721 113.589 24.1428C112.988 25.3069 112.131 26.2159 111.019 26.8699C109.914 27.5173 108.599 27.8411 107.076 27.8411ZM107.095 24.6038C107.788 24.6038 108.367 24.4076 108.832 24.0152C109.296 23.6163 109.646 23.0735 109.881 22.3868C110.123 21.7001 110.244 20.9186 110.244 20.0423C110.244 19.1659 110.123 18.3844 109.881 17.6977C109.646 17.0111 109.296 16.4683 108.832 16.0693C108.367 15.6704 107.788 15.4709 107.095 15.4709C106.395 15.4709 105.807 15.6704 105.329 16.0693C104.859 16.4683 104.502 17.0111 104.26 17.6977C104.025 18.3844 103.907 19.1659 103.907 20.0423C103.907 20.9186 104.025 21.7001 104.26 22.3868C104.502 23.0735 104.859 23.6163 105.329 24.0152C105.807 24.4076 106.395 24.6038 107.095 24.6038Z" fill="black"/>
<path d="M117.209 27.5468V12.4789H121.388V27.5468H117.209ZM119.308 10.5366C118.687 10.5366 118.154 10.3306 117.709 9.91859C117.271 9.50004 117.052 8.99974 117.052 8.4177C117.052 7.84219 117.271 7.34843 117.709 6.93642C118.154 6.51787 118.687 6.30859 119.308 6.30859C119.93 6.30859 120.459 6.51787 120.898 6.93642C121.342 7.34843 121.565 7.84219 121.565 8.4177C121.565 8.99974 121.342 9.50004 120.898 9.91859C120.459 10.3306 119.93 10.5366 119.308 10.5366Z" fill="black"/>
<path d="M124.736 33.1972V12.4789H128.856V15.0099H129.042C129.225 14.6044 129.49 14.1924 129.837 13.7738C130.19 13.3487 130.648 12.9956 131.21 12.7144C131.779 12.4266 132.485 12.2828 133.329 12.2828C134.428 12.2828 135.441 12.5705 136.37 13.146C137.299 13.715 138.041 14.575 138.597 15.726C139.153 16.8705 139.431 18.306 139.431 20.0325C139.431 21.7132 139.159 23.1324 138.617 24.2899C138.08 25.4409 137.348 26.314 136.419 26.9091C135.497 27.4977 134.464 27.792 133.319 27.792C132.508 27.792 131.818 27.6579 131.249 27.3898C130.687 27.1217 130.226 26.7849 129.866 26.3794C129.506 25.9674 129.232 25.5521 129.042 25.1336H128.915V33.1972H124.736ZM128.826 20.0129C128.826 20.9088 128.951 21.6903 129.199 22.3574C129.448 23.0245 129.807 23.5444 130.278 23.9172C130.749 24.2834 131.321 24.4665 131.995 24.4665C132.675 24.4665 133.251 24.2801 133.721 23.9073C134.192 23.528 134.549 23.0048 134.791 22.3378C135.039 21.6642 135.163 20.8892 135.163 20.0129C135.163 19.1431 135.042 18.3779 134.801 17.7174C134.559 17.0568 134.202 16.5402 133.731 16.1674C133.26 15.7947 132.682 15.6083 131.995 15.6083C131.315 15.6083 130.739 15.7881 130.268 16.1478C129.804 16.5075 129.448 17.0176 129.199 17.6781C128.951 18.3387 128.826 19.1169 128.826 20.0129Z" fill="black"/>
<path d="M154.754 16.7756L150.928 17.0111C150.862 16.6841 150.722 16.3898 150.506 16.1282C150.29 15.8601 150.006 15.6475 149.653 15.4905C149.306 15.3271 148.891 15.2453 148.407 15.2453C147.759 15.2453 147.213 15.3826 146.768 15.6573C146.324 15.9254 146.101 16.2851 146.101 16.7364C146.101 17.0961 146.245 17.4002 146.533 17.6487C146.821 17.8972 147.315 18.0967 148.014 18.2471L150.741 18.7964C152.206 19.0973 153.298 19.5812 154.018 20.2483C154.737 20.9154 155.097 21.7917 155.097 22.8773C155.097 23.8648 154.806 24.7314 154.224 25.4769C153.648 26.2224 152.857 26.8045 151.85 27.223C150.849 27.6351 149.695 27.8411 148.387 27.8411C146.392 27.8411 144.803 27.4258 143.619 26.5952C142.442 25.7581 141.752 24.6202 141.55 23.1814L145.66 22.9656C145.784 23.5738 146.085 24.0381 146.562 24.3586C147.04 24.6725 147.651 24.8295 148.397 24.8295C149.129 24.8295 149.718 24.6889 150.163 24.4076C150.614 24.1199 150.843 23.7504 150.849 23.2991C150.843 22.9198 150.683 22.6092 150.369 22.3672C150.055 22.1187 149.571 21.929 148.917 21.7982L146.307 21.2783C144.836 20.984 143.74 20.4739 143.021 19.748C142.308 19.0221 141.952 18.0967 141.952 16.9718C141.952 16.0039 142.213 15.1701 142.737 14.4703C143.266 13.7706 144.009 13.231 144.963 12.8517C145.925 12.4724 147.05 12.2828 148.338 12.2828C150.241 12.2828 151.739 12.685 152.831 13.4894C153.93 14.2938 154.57 15.3892 154.754 16.7756Z" fill="black"/>
<path d="M167.391 21.1312V12.4789H171.57V27.5468H167.558V24.8098H167.401C167.061 25.6927 166.495 26.4023 165.704 26.9386C164.919 27.4748 163.961 27.743 162.83 27.743C161.822 27.743 160.936 27.5141 160.171 27.0563C159.406 26.5985 158.807 25.9478 158.376 25.1041C157.951 24.2605 157.735 23.2501 157.728 22.0729V12.4789H161.907V21.3274C161.914 22.2168 162.153 22.9198 162.624 23.4365C163.094 23.9531 163.725 24.2114 164.517 24.2114C165.02 24.2114 165.491 24.097 165.929 23.8681C166.368 23.6327 166.721 23.2861 166.989 22.8283C167.264 22.3705 167.398 21.8048 167.391 21.1312Z" fill="black"/>
<path d="M174.913 27.5468V12.4789H178.895V15.1374H179.072C179.386 14.2545 179.909 13.558 180.642 13.0479C181.374 12.5378 182.25 12.2828 183.271 12.2828C184.304 12.2828 185.184 12.5411 185.909 13.0577C186.635 13.5678 187.119 14.2611 187.361 15.1374H187.518C187.826 14.2741 188.382 13.5842 189.186 13.0675C189.997 12.5443 190.955 12.2828 192.06 12.2828C193.466 12.2828 194.607 12.7307 195.484 13.6267C196.367 14.5161 196.808 15.7783 196.808 17.4133V27.5468H192.639V18.2373C192.639 17.4002 192.417 16.7724 191.972 16.3538C191.527 15.9353 190.971 15.726 190.304 15.726C189.546 15.726 188.954 15.968 188.529 16.4519C188.104 16.9293 187.891 17.5604 187.891 18.3452V27.5468H183.84V18.149C183.84 17.41 183.627 16.8214 183.202 16.3832C182.783 15.9451 182.231 15.726 181.544 15.726C181.08 15.726 180.661 15.8437 180.288 16.0791C179.922 16.308 179.631 16.6318 179.415 17.0503C179.2 17.4623 179.092 17.9463 179.092 18.5022V27.5468H174.913Z" fill="black"/>
<defs>
<clipPath id="clip0_6506_4008">
<rect width="34.5304" height="35.3937" fill="white" transform="translate(0.181641 0.917969)"/>
</clipPath>
</defs>
</svg>
