<svg width="198" height="35" viewBox="0 0 198 35" fill="none" xmlns="http://www.w3.org/2000/svg">
<g clip-path="url(#clip0_6506_3996)">
<path fill-rule="evenodd" clip-rule="evenodd" d="M9.13261 0.347656C13.9002 0.347656 17.7652 4.2126 17.7652 8.98026V0.347656H26.3978C31.1654 0.347656 35.0304 4.2126 35.0304 8.98026C35.0304 13.7479 31.1654 17.6129 26.3978 17.6129C31.1654 17.6129 35.0304 21.4779 35.0304 26.2455C35.0304 28.6128 34.0775 30.7576 32.5343 32.3171L32.502 32.3497L32.4734 32.3782C30.9135 33.9236 28.7671 34.8781 26.3978 34.8781C24.0447 34.8781 21.9114 33.9365 20.3541 32.4096C20.3339 32.3897 20.3137 32.3697 20.2936 32.3497C20.2747 32.3308 20.2559 32.3118 20.2372 32.2927C18.7082 30.7352 17.7652 28.6005 17.7652 26.2455C17.7652 31.0131 13.9002 34.8781 9.13261 34.8781C4.36495 34.8781 0.5 31.0131 0.5 26.2455V17.6129H9.13261C4.36495 17.6129 0.5 13.7479 0.5 8.98026C0.5 4.2126 4.36495 0.347656 9.13261 0.347656ZM16.0387 8.98026C16.0387 12.7944 12.9468 15.8863 9.13261 15.8863V2.07418C12.9468 2.07418 16.0387 5.16614 16.0387 8.98026ZM33.3039 26.2455C33.3039 22.4313 30.212 19.3394 26.3978 19.3394C22.5837 19.3394 19.4917 22.4313 19.4917 26.2455H33.3039ZM2.22652 19.3394V26.2455C2.22652 30.0596 5.31848 33.1516 9.13261 33.1516C12.9468 33.1516 16.0387 30.0596 16.0387 26.2455V19.3394H2.22652ZM19.4917 15.8863V2.07418H26.3978C30.212 2.07418 33.3039 5.16614 33.3039 8.98026C33.3039 12.7944 30.212 15.8863 26.3978 15.8863H19.4917Z" fill="black"/>
</g>
<path d="M50.5684 26.9765V6.88603H54.816V23.4744H63.429V26.9765H50.5684Z" fill="black"/>
<path d="M72.9714 27.2708C71.4477 27.2708 70.1299 26.947 69.0181 26.2996C67.9129 25.6456 67.0594 24.7366 66.4578 23.5725C65.8561 22.4018 65.5553 21.0448 65.5553 19.5014C65.5553 17.9449 65.8561 16.5846 66.4578 15.4205C67.0594 14.2499 67.9129 13.3409 69.0181 12.6934C70.1299 12.0394 71.4477 11.7124 72.9714 11.7124C74.4952 11.7124 75.8097 12.0394 76.915 12.6934C78.0268 13.3409 78.8835 14.2499 79.4851 15.4205C80.0868 16.5846 80.3876 17.9449 80.3876 19.5014C80.3876 21.0448 80.0868 22.4018 79.4851 23.5725C78.8835 24.7366 78.0268 25.6456 76.915 26.2996C75.8097 26.947 74.4952 27.2708 72.9714 27.2708ZM72.9911 24.0335C73.6843 24.0335 74.2631 23.8373 74.7274 23.4449C75.1917 23.046 75.5416 22.5032 75.777 21.8165C76.019 21.1298 76.14 20.3483 76.14 19.472C76.14 18.5956 76.019 17.8141 75.777 17.1274C75.5416 16.4408 75.1917 15.8979 74.7274 15.499C74.2631 15.1001 73.6843 14.9006 72.9911 14.9006C72.2913 14.9006 71.7027 15.1001 71.2253 15.499C70.7544 15.8979 70.398 16.4408 70.156 17.1274C69.9206 17.8141 69.8029 18.5956 69.8029 19.472C69.8029 20.3483 69.9206 21.1298 70.156 21.8165C70.398 22.5032 70.7544 23.046 71.2253 23.4449C71.7027 23.8373 72.2913 24.0335 72.9911 24.0335Z" fill="black"/>
<path d="M89.8933 32.9408C88.5396 32.9408 87.3787 32.7544 86.4108 32.3816C85.4495 32.0154 84.6843 31.5151 84.1154 30.8808C83.5464 30.2464 83.1769 29.5335 83.0069 28.7422L86.8719 28.2223C86.9896 28.5231 87.176 28.8043 87.4311 29.0659C87.6861 29.3275 88.0229 29.5368 88.4415 29.6938C88.8666 29.8573 89.3832 29.939 89.9914 29.939C90.9005 29.939 91.6493 29.7167 92.2379 29.2719C92.833 28.8338 93.1305 28.098 93.1305 27.0647V24.3082H92.954C92.7709 24.7267 92.4962 25.1224 92.13 25.4952C91.7637 25.868 91.2928 26.1721 90.7173 26.4075C90.1418 26.6429 89.4551 26.7606 88.6573 26.7606C87.5259 26.7606 86.4959 26.499 85.5672 25.9759C84.6451 25.4461 83.9094 24.6385 83.36 23.5528C82.8172 22.4607 82.5458 21.0808 82.5458 19.4131C82.5458 17.7062 82.8237 16.2805 83.3796 15.1361C83.9355 13.9916 84.6745 13.1349 85.5966 12.5659C86.5253 11.9969 87.5422 11.7124 88.6475 11.7124C89.4911 11.7124 90.1974 11.8563 90.7664 12.1441C91.3354 12.4253 91.7931 12.7784 92.1398 13.2035C92.4929 13.6221 92.7643 14.0341 92.954 14.4396H93.1109V11.9086H97.2605V27.1236C97.2605 28.4054 96.9466 29.478 96.3187 30.3412C95.6909 31.2045 94.8211 31.8519 93.7093 32.2835C92.6041 32.7217 91.3321 32.9408 89.8933 32.9408ZM89.9816 23.6215C90.6552 23.6215 91.2242 23.4547 91.6885 23.1212C92.1594 22.7811 92.5191 22.2972 92.7676 21.6694C93.0226 21.035 93.1502 20.2764 93.1502 19.3935C93.1502 18.5106 93.0259 17.7455 92.7774 17.098C92.5289 16.444 92.1692 15.9372 91.6983 15.5775C91.2275 15.2178 90.6552 15.038 89.9816 15.038C89.2949 15.038 88.7161 15.2243 88.2453 15.5971C87.7744 15.9633 87.418 16.4735 87.176 17.1274C86.934 17.7814 86.813 18.5368 86.813 19.3935C86.813 20.2633 86.934 21.0154 87.176 21.6497C87.4245 22.2776 87.7809 22.7648 88.2453 23.1114C88.7161 23.4515 89.2949 23.6215 89.9816 23.6215Z" fill="black"/>
<path d="M107.394 27.2708C105.87 27.2708 104.552 26.947 103.441 26.2996C102.335 25.6456 101.482 24.7366 100.88 23.5725C100.279 22.4018 99.9778 21.0448 99.9778 19.5014C99.9778 17.9449 100.279 16.5846 100.88 15.4205C101.482 14.2499 102.335 13.3409 103.441 12.6934C104.552 12.0394 105.87 11.7124 107.394 11.7124C108.918 11.7124 110.232 12.0394 111.338 12.6934C112.449 13.3409 113.306 14.2499 113.908 15.4205C114.509 16.5846 114.81 17.9449 114.81 19.5014C114.81 21.0448 114.509 22.4018 113.908 23.5725C113.306 24.7366 112.449 25.6456 111.338 26.2996C110.232 26.947 108.918 27.2708 107.394 27.2708ZM107.414 24.0335C108.107 24.0335 108.686 23.8373 109.15 23.4449C109.614 23.046 109.964 22.5032 110.2 21.8165C110.442 21.1298 110.563 20.3483 110.563 19.472C110.563 18.5956 110.442 17.8141 110.2 17.1274C109.964 16.4408 109.614 15.8979 109.15 15.499C108.686 15.1001 108.107 14.9006 107.414 14.9006C106.714 14.9006 106.125 15.1001 105.648 15.499C105.177 15.8979 104.821 16.4408 104.579 17.1274C104.343 17.8141 104.225 18.5956 104.225 19.472C104.225 20.3483 104.343 21.1298 104.579 21.8165C104.821 22.5032 105.177 23.046 105.648 23.4449C106.125 23.8373 106.714 24.0335 107.414 24.0335Z" fill="black"/>
<path d="M117.527 26.9765V11.9086H121.706V26.9765H117.527ZM119.627 9.9663C119.005 9.9663 118.472 9.76029 118.028 9.34828C117.59 8.92973 117.371 8.42943 117.371 7.84738C117.371 7.27188 117.59 6.77812 118.028 6.36611C118.472 5.94756 119.005 5.73828 119.627 5.73828C120.248 5.73828 120.778 5.94756 121.216 6.36611C121.661 6.77812 121.883 7.27188 121.883 7.84738C121.883 8.42943 121.661 8.92973 121.216 9.34828C120.778 9.76029 120.248 9.9663 119.627 9.9663Z" fill="black"/>
<path d="M125.054 32.6269V11.9086H129.174V14.4396H129.361C129.544 14.0341 129.809 13.6221 130.155 13.2035C130.508 12.7784 130.966 12.4253 131.528 12.1441C132.097 11.8563 132.804 11.7124 133.647 11.7124C134.746 11.7124 135.76 12.0002 136.688 12.5757C137.617 13.1447 138.359 14.0047 138.915 15.1557C139.471 16.3001 139.749 17.7356 139.749 19.4622C139.749 21.1429 139.478 22.5621 138.935 23.7196C138.399 24.8706 137.666 25.7437 136.737 26.3388C135.815 26.9274 134.782 27.2217 133.638 27.2217C132.827 27.2217 132.137 27.0876 131.568 26.8195C131.005 26.5514 130.544 26.2146 130.185 25.8091C129.825 25.3971 129.55 24.9818 129.361 24.5633H129.233V32.6269H125.054ZM129.145 19.4425C129.145 20.3385 129.269 21.12 129.517 21.7871C129.766 22.4541 130.126 22.9741 130.597 23.3468C131.067 23.7131 131.64 23.8962 132.313 23.8962C132.993 23.8962 133.569 23.7098 134.04 23.337C134.511 22.9577 134.867 22.4345 135.109 21.7675C135.358 21.0939 135.482 20.3189 135.482 19.4425C135.482 18.5727 135.361 17.8076 135.119 17.1471C134.877 16.4865 134.52 15.9699 134.05 15.5971C133.579 15.2243 133 15.038 132.313 15.038C131.633 15.038 131.058 15.2178 130.587 15.5775C130.122 15.9372 129.766 16.4473 129.517 17.1078C129.269 17.7683 129.145 18.5466 129.145 19.4425Z" fill="black"/>
<path d="M155.072 16.2053L151.246 16.4408C151.181 16.1138 151.04 15.8195 150.824 15.5579C150.609 15.2897 150.324 15.0772 149.971 14.9202C149.624 14.7567 149.209 14.675 148.725 14.675C148.078 14.675 147.532 14.8123 147.087 15.087C146.642 15.3551 146.42 15.7148 146.42 16.1661C146.42 16.5258 146.564 16.8299 146.851 17.0784C147.139 17.3269 147.633 17.5264 148.333 17.6768L151.06 18.2261C152.525 18.527 153.617 19.0109 154.336 19.678C155.056 20.345 155.415 21.2214 155.415 22.307C155.415 23.2945 155.124 24.161 154.542 24.9066C153.967 25.6521 153.175 26.2342 152.168 26.6527C151.168 27.0647 150.013 27.2708 148.705 27.2708C146.711 27.2708 145.122 26.8555 143.938 26.0249C142.761 25.1878 142.071 24.0499 141.868 22.6111L145.978 22.3953C146.103 23.0035 146.403 23.4678 146.881 23.7883C147.358 24.1022 147.97 24.2591 148.715 24.2591C149.448 24.2591 150.036 24.1185 150.481 23.8373C150.932 23.5496 151.161 23.1801 151.168 22.7288C151.161 22.3495 151.001 22.0389 150.687 21.7969C150.373 21.5484 149.889 21.3587 149.235 21.2279L146.626 20.708C145.154 20.4137 144.059 19.9036 143.339 19.1777C142.627 18.4518 142.27 17.5264 142.27 16.4015C142.27 15.4336 142.532 14.5998 143.055 13.9C143.585 13.2003 144.327 12.6607 145.282 12.2814C146.243 11.9021 147.368 11.7124 148.656 11.7124C150.559 11.7124 152.057 12.1146 153.149 12.919C154.248 13.7234 154.889 14.8189 155.072 16.2053Z" fill="black"/>
<path d="M167.709 20.5609V11.9086H171.888V26.9765H167.876V24.2395H167.719C167.379 25.1224 166.813 25.832 166.022 26.3682C165.237 26.9045 164.279 27.1727 163.148 27.1727C162.141 27.1727 161.255 26.9438 160.489 26.486C159.724 26.0282 159.126 25.3775 158.694 24.5338C158.269 23.6902 158.053 22.6798 158.047 21.5026V11.9086H162.226V20.7571C162.232 21.6465 162.471 22.3495 162.942 22.8662C163.413 23.3828 164.044 23.6411 164.835 23.6411C165.339 23.6411 165.81 23.5267 166.248 23.2978C166.686 23.0624 167.039 22.7157 167.307 22.258C167.582 21.8002 167.716 21.2345 167.709 20.5609Z" fill="black"/>
<path d="M175.231 26.9765V11.9086H179.214V14.5671H179.39C179.704 13.6842 180.228 12.9877 180.96 12.4776C181.692 11.9675 182.569 11.7124 183.589 11.7124C184.622 11.7124 185.502 11.9708 186.228 12.4874C186.954 12.9975 187.438 13.6907 187.68 14.5671H187.837C188.144 13.7038 188.7 13.0139 189.504 12.4972C190.315 11.974 191.273 11.7124 192.379 11.7124C193.785 11.7124 194.926 12.1604 195.802 13.0564C196.685 13.9458 197.126 15.208 197.126 16.843V26.9765H192.957V17.667C192.957 16.8299 192.735 16.202 192.29 15.7835C191.846 15.3649 191.29 15.1557 190.623 15.1557C189.864 15.1557 189.272 15.3976 188.847 15.8816C188.422 16.359 188.209 16.9901 188.209 17.7749V26.9765H184.158V17.5787C184.158 16.8397 183.945 16.2511 183.52 15.8129C183.102 15.3748 182.549 15.1557 181.862 15.1557C181.398 15.1557 180.98 15.2734 180.607 15.5088C180.241 15.7377 179.95 16.0614 179.734 16.48C179.518 16.892 179.41 17.376 179.41 17.9318V26.9765H175.231Z" fill="black"/>
<defs>
<clipPath id="clip0_6506_3996">
<rect width="34.5304" height="34.5304" fill="white" transform="translate(0.5 0.347656)"/>
</clipPath>
</defs>
</svg>
