<svg width="40" height="40" viewBox="0 0 40 40" fill="none" xmlns="http://www.w3.org/2000/svg">
<path fill-rule="evenodd" clip-rule="evenodd" d="M15.0006 7.5C15.2722 7.50006 15.5364 7.58858 15.7532 7.75216C15.97 7.91575 16.1276 8.14551 16.2022 8.40667L17.5572 13.15C17.849 14.1715 18.3963 15.1018 19.1475 15.853C19.8987 16.6043 20.829 17.1516 21.8506 17.4433L26.5939 18.7983C26.8549 18.8731 27.0844 19.0308 27.2479 19.2476C27.4113 19.4644 27.4997 19.7285 27.4997 20C27.4997 20.2715 27.4113 20.5356 27.2479 20.7524C27.0844 20.9692 26.8549 21.1269 26.5939 21.2017L21.8506 22.5567C20.829 22.8484 19.8987 23.3957 19.1475 24.147C18.3963 24.8982 17.849 25.8285 17.5572 26.85L16.2022 31.5933C16.1275 31.8543 15.9698 32.0839 15.753 32.2473C15.5362 32.4107 15.2721 32.4991 15.0006 32.4991C14.7291 32.4991 14.465 32.4107 14.2482 32.2473C14.0314 32.0839 13.8737 31.8543 13.7989 31.5933L12.4439 26.85C12.1521 25.8285 11.6048 24.8982 10.8536 24.147C10.1024 23.3957 9.17209 22.8484 8.15056 22.5567L3.40723 21.2017C3.14624 21.1269 2.91668 20.9692 2.75327 20.7524C2.58985 20.5356 2.50146 20.2715 2.50146 20C2.50146 19.7285 2.58985 19.4644 2.75327 19.2476C2.91668 19.0308 3.14624 18.8731 3.40723 18.7983L8.15056 17.4433C9.17209 17.1516 10.1024 16.6043 10.8536 15.853C11.6048 15.1018 12.1521 14.1715 12.4439 13.15L13.7989 8.40667C13.8735 8.14551 14.0311 7.91575 14.2479 7.75216C14.4648 7.58858 14.729 7.50006 15.0006 7.5ZM30.0006 2.5C30.2794 2.49984 30.5503 2.59294 30.7702 2.76448C30.99 2.93601 31.1462 3.17614 31.2139 3.44667L31.6439 5.17333C32.0372 6.74 33.2606 7.96333 34.8272 8.35667L36.5539 8.78667C36.8249 8.8538 37.0657 9.00976 37.2378 9.22967C37.4099 9.44957 37.5034 9.72077 37.5034 10C37.5034 10.2792 37.4099 10.5504 37.2378 10.7703C37.0657 10.9902 36.8249 11.1462 36.5539 11.2133L34.8272 11.6433C33.2606 12.0367 32.0372 13.26 31.6439 14.8267L31.2139 16.5533C31.1468 16.8244 30.9908 17.0651 30.7709 17.2372C30.551 17.4093 30.2798 17.5028 30.0006 17.5028C29.7213 17.5028 29.4501 17.4093 29.2302 17.2372C29.0103 17.0651 28.8544 16.8244 28.7872 16.5533L28.3572 14.8267C28.1649 14.0574 27.7671 13.3548 27.2064 12.7941C26.6457 12.2334 25.9432 11.8356 25.1739 11.6433L23.4472 11.2133C23.1762 11.1462 22.9354 10.9902 22.7633 10.7703C22.5913 10.5504 22.4978 10.2792 22.4978 10C22.4978 9.72077 22.5913 9.44957 22.7633 9.22967C22.9354 9.00976 23.1762 8.8538 23.4472 8.78667L25.1739 8.35667C25.9432 8.16435 26.6457 7.76658 27.2064 7.20588C27.7671 6.64517 28.1649 5.94262 28.3572 5.17333L28.7872 3.44667C28.8549 3.17614 29.0111 2.93601 29.2309 2.76448C29.4508 2.59294 29.7217 2.49984 30.0006 2.5ZM27.5006 25C27.7631 24.9999 28.019 25.0824 28.232 25.2358C28.445 25.3893 28.6043 25.6059 28.6872 25.855L29.3439 27.8267C29.5939 28.5717 30.1772 29.1583 30.9239 29.4067L32.8956 30.065C33.1438 30.1484 33.3597 30.3076 33.5126 30.5202C33.6655 30.7328 33.7477 30.9881 33.7477 31.25C33.7477 31.5119 33.6655 31.7672 33.5126 31.9798C33.3597 32.1924 33.1438 32.3516 32.8956 32.435L30.9239 33.0933C30.1789 33.3433 29.5922 33.9267 29.3439 34.6733L28.6856 36.645C28.6022 36.8933 28.443 37.1091 28.2304 37.262C28.0177 37.4149 27.7625 37.4972 27.5006 37.4972C27.2387 37.4972 26.9834 37.4149 26.7708 37.262C26.5581 37.1091 26.3989 36.8933 26.3156 36.645L25.6572 34.6733C25.5345 34.3055 25.3278 33.9712 25.0536 33.697C24.7794 33.4228 24.4451 33.2161 24.0772 33.0933L22.1056 32.435C21.8573 32.3516 21.6415 32.1924 21.4886 31.9798C21.3357 31.7672 21.2534 31.5119 21.2534 31.25C21.2534 30.9881 21.3357 30.7328 21.4886 30.5202C21.6415 30.3076 21.8573 30.1484 22.1056 30.065L24.0772 29.4067C24.8222 29.1567 25.4089 28.5733 25.6572 27.8267L26.3156 25.855C26.3984 25.6062 26.5575 25.3898 26.7701 25.2363C26.9828 25.0829 27.2383 25.0002 27.5006 25Z" fill="#171A15"/>
</svg>
